<svg width="28" height="28" viewBox="0 0 28 28" fill="none" xmlns="http://www.w3.org/2000/svg">
<path fill-rule="evenodd" clip-rule="evenodd" d="M14.001 19.3851L19.8863 22.4792L18.7623 15.9258L23.5236 11.2847L16.9437 10.3286L14.001 4.36613L11.0584 10.3286L4.47846 11.2847L9.23974 15.9258L8.11576 22.4792L14.001 19.3851ZM7.3594 16.5368L6.22643 23.1425C6.05467 24.1439 7.14769 24.9652 8.06872 24.481L14.001 21.3622L19.9333 24.481C20.8327 24.9538 21.9515 24.1681 21.7756 23.1425L20.6427 16.5368L25.442 11.8586C26.1696 11.1493 25.7681 9.84245 24.7383 9.69282L18.1058 8.72905L15.1396 2.71896C14.69 1.80782 13.323 1.78586 12.8624 2.71896L9.89628 8.72905L3.26376 9.69282C2.25824 9.83892 1.81493 11.1322 2.56006 11.8586L7.3594 16.5368Z" fill="black" fill-opacity="1"/>
</svg>
