<svg width="20" height="20" viewBox="0 0 20 20" fill="none" xmlns="http://www.w3.org/2000/svg">
<path d="M8.50014 5.41663C8.50014 6.15305 7.90315 6.75004 7.16673 6.75004C6.4303 6.75004 5.83331 6.15305 5.83331 5.41663C5.83331 4.6802 6.4303 4.08321 7.16673 4.08321C7.90315 4.08321 8.50014 4.6802 8.50014 5.41663Z" fill="black" fill-opacity="1"/>
<path d="M5.83331 9.45837H12.0833V8.20837H5.83331V9.45837Z" fill="black" fill-opacity="1"/>
<path d="M5.83331 11.9584H9.16665V10.7084H5.83331V11.9584Z" fill="black" fill-opacity="1"/>
<path d="M5.83331 14.4584H9.16665V13.2084H5.83331V14.4584Z" fill="black" fill-opacity="1"/>
<path fill-rule="evenodd" clip-rule="evenodd" d="M4.16665 1.66663C3.70641 1.66663 3.33331 2.03972 3.33331 2.49996V17.5C3.33331 17.9602 3.70641 18.3333 4.16665 18.3333H15.8333C16.2935 18.3333 16.6666 17.9602 16.6666 17.5V2.49996C16.6666 2.03972 16.2935 1.66663 15.8333 1.66663H4.16665ZM15.4166 2.91663H4.58331V17.0833H15.4166V2.91663Z" fill="black" fill-opacity="1"/>
</svg>
