<svg width="16" height="16" viewBox="0 0 16 16" fill="none" xmlns="http://www.w3.org/2000/svg">
<path fill-rule="evenodd" clip-rule="evenodd" d="M2 2.69071C2 2.30924 2.31661 2 2.70717 2H11.1932C11.5837 2 11.9004 2.30924 11.9004 2.69071V8.21639L5.53584 14.4328H2.70717C2.31661 14.4328 2 14.1235 2 13.7421V2.69071ZM3.76792 4.01686H8.01093V5.05293H3.76792V4.01686ZM8.01093 6.10282H3.76792V7.13888H8.01093V6.10282ZM13.0357 8.70517C13.1654 8.58906 13.3669 8.5976 13.4858 8.72424L13.9163 9.18287C14.0351 9.30952 14.0264 9.50632 13.8967 9.62243L9.45646 13.902L7.94252 14.6467C7.84825 14.693 7.73334 14.656 7.68587 14.5639C7.65572 14.5054 7.65914 14.4358 7.69488 14.3804L8.59553 12.9847L13.0357 8.70517Z" fill="black"/>
</svg>
