<svg width="24" height="24" viewBox="0 0 24 24" fill="none" xmlns="http://www.w3.org/2000/svg">
<path fill-rule="evenodd" clip-rule="evenodd" d="M19 4.5C20.3807 4.5 21.5 5.61929 21.5 7V15.5C21.5 16.8807 20.3807 18 19 18H11.5L9.20711 20.29C8.81658 20.6805 8.18342 20.6805 7.79289 20.29C7.60536 20.1025 7.5 19.8552 7.5 19.59V18H5C3.61929 18 2.5 16.8807 2.5 15.5V7C2.5 5.61929 3.61929 4.5 5 4.5H19ZM19 5.7H5C4.3269 5.7 3.77328 6.21155 3.70671 6.86708L3.7 7V15.5C3.7 16.1731 4.21155 16.7267 4.86708 16.7933L5 16.8H8.7L8.699 19.1L11.0034 16.8H19C19.6731 16.8 20.2267 16.2885 20.2933 15.6329L20.3 15.5V7C20.3 6.3269 19.7885 5.77328 19.1329 5.70671L19 5.7Z" fill="black"/>
</svg>
