<svg width="24" height="24" viewBox="0 0 24 24" fill="none" xmlns="http://www.w3.org/2000/svg">
<path fill-rule="evenodd" clip-rule="evenodd" d="M15.6659 6.73482L15.4772 9.55456H19.555C20.6759 9.55456 21.8237 10.766 21.6465 12.2588L21.6196 12.4056L20.2203 19.078C19.9816 20.2075 19.1802 20.9227 18.2096 20.992L18.0552 20.9975L9.01672 20.9917C8.46469 20.9907 8.01736 20.5431 8.01672 19.9911V11.2404C8.01671 10.8476 8.2606 10.501 8.62024 10.3639L8.73148 10.3292C10.0018 10.0177 11.0538 7.92838 11.2466 6.06782L11.2571 5.90866L11.2791 5.33911L11.3016 5.06542C11.3759 4.3611 11.5861 3.47588 12.3788 3.13466C14.4624 2.23777 15.7802 4.9589 15.6659 6.73482ZM5.51479 20.9931L4.35213 20.9955C3.83929 20.9965 3.41584 20.6113 3.35706 20.1141L3.3501 19.9955V11.416C3.3501 10.8651 3.79573 10.4179 4.34667 10.416L5.50934 10.412C6.02217 10.4103 6.44616 10.7949 6.50563 11.292L6.51276 11.412V19.9931C6.51276 20.5446 6.06629 20.992 5.51479 20.9931Z" fill="black"/>
</svg>
