<svg width="16" height="16" viewBox="0 0 16 16" fill="none" xmlns="http://www.w3.org/2000/svg"><path fill-rule="evenodd" clip-rule="evenodd" d="M2.69269 9.96612C2.83411 9.79641 3.08634 9.77349 3.25605 9.91491L6.58938 12.6928C6.75909 12.8342 6.78202 13.0864 6.64059 13.2561 6.49916 13.4258 6.24693 13.4488 6.07723 13.3073L2.74389 10.5295C2.57418 10.3881 2.55126 10.1358 2.69269 9.96612z" fill="#000"/><path fill-rule="evenodd" clip-rule="evenodd" d="M13.3072 9.96612C13.4487 10.1358 13.4257 10.3881 13.256 10.5295L9.9227 13.3073C9.753 13.4488 9.50077 13.4258 9.35934 13.2561 9.21791 13.0864 9.24084 12.8342 9.41055 12.6928L12.7439 9.91491C12.9136 9.77349 13.1658 9.79641 13.3072 9.96612z" fill="#000"/><path fill-rule="evenodd" clip-rule="evenodd" d="M6.57033 4.25688C6.7142 3.99249 6.94236 3.61954 7.21871 3.31808 7.50832 3.00216 7.77741 2.8446 8.00001 2.8446 8.22261 2.8446 8.4917 3.00216 8.78131 3.31808 9.05766 3.61954 9.28582 3.99249 9.42969 4.25688 9.62469 4.61525 10.0662 4.75612 10.43 4.59939 10.6334 4.51172 10.897 4.41696 11.1465 4.37806 11.4106 4.3369 11.5695 4.37178 11.6489 4.43132 11.8298 4.56696 11.893 4.72948 11.8974 4.97827 11.901 5.18026 11.8675 5.38571 11.8268 5.63539 11.8086 5.74716 11.7889 5.8678 11.7705 6.00096 11.5289 7.74586 10.9698 8.67434 10.3263 9.1785 9.68135 9.68374 8.87948 9.82092 8.01598 9.82258 8.01065 9.82237 8.00529 9.82227 7.9999 9.82227 7.99452 9.82227 7.98916 9.82237 7.98382 9.82258 7.12041 9.8209 6.31863 9.6837 5.67379 9.1785 5.03028 8.67434 4.47118 7.74586 4.22956 6.00095 4.21113 5.86782 4.19146 5.7472 4.17324 5.63544 4.13252 5.38574 4.09902 5.18028 4.10259 4.97828 4.10698 4.72949 4.17025 4.56696 4.35112 4.43132 4.43051 4.37178 4.58945 4.3369 4.85347 4.37806 5.10299 4.41696 5.36658 4.51172 5.57005 4.59939 5.93381 4.75612 6.37533 4.61525 6.57033 4.25688zM7.5999 10.6131C6.77846 10.5721 5.91763 10.3858 5.18042 9.80825 4.31699 9.1318 3.69554 7.97688 3.43712 6.11068 3.42543 6.02624 3.41046 5.93435 3.39477 5.83807V5.83806C3.34929 5.55893 3.29779 5.24285 3.30271 4.96416 3.31009 4.54572 3.43832 4.11591 3.87112 3.79131 4.21367 3.53441 4.64618 3.53608 4.97671 3.58761 5.31628 3.64055 5.6452 3.76133 5.87557 3.85995 6.03349 3.57136 6.29471 3.14215 6.629 2.77749 6.9557 2.42111 7.42668 2.0446 8.00001 2.0446 8.57334 2.0446 9.04432 2.42111 9.37102 2.77749 9.70531 3.14215 9.96653 3.57136 10.1244 3.85995 10.3548 3.76133 10.6837 3.64055 11.0233 3.58761 11.3538 3.53608 11.7863 3.53441 12.1289 3.79131 12.5617 4.11591 12.6899 4.54572 12.6973 4.96416 12.7022 5.24283 12.6507 5.55889 12.6053 5.83802L12.6052 5.83804C12.5896 5.93433 12.5746 6.02623 12.5629 6.11067 12.3045 7.97688 11.6831 9.1318 10.8196 9.80825 10.0823 10.3859 9.22141 10.5721 8.3999 10.6131V13.5557C8.3999 13.7766 8.22081 13.9557 7.9999 13.9557 7.77899 13.9557 7.5999 13.7766 7.5999 13.5557V10.6131z" fill="#000"/></svg>