<svg width="20" height="20" viewBox="0 0 20 20" fill="none" xmlns="http://www.w3.org/2000/svg">
<path fill-rule="evenodd" clip-rule="evenodd" d="M1.66669 4.16671C1.66669 3.70647 2.03978 3.33337 2.50002 3.33337H17.5C17.9603 3.33337 18.3334 3.70647 18.3334 4.16671V15.8334C18.3334 16.2936 17.9603 16.6667 17.5 16.6667H2.50002C2.03978 16.6667 1.66669 16.2936 1.66669 15.8334V4.16671ZM2.91669 4.58337H17.0834V11.5841L15.1984 9.94236C14.8155 9.60879 14.2478 9.60005 13.8547 9.92166L11.9319 11.4949L8.17573 8.22342C7.79275 7.88985 7.22504 7.88111 6.83197 8.20271L2.91669 11.4061V4.58337ZM2.91669 13.0212V15.4167H17.0834V13.2417L14.5101 11.0005L12.888 12.3277L14.043 13.3336H12.1398L7.48739 9.28154L2.91669 13.0212Z" fill="white"/>
</svg>
