<svg width="20" height="20" viewBox="0 0 20 20" fill="none" xmlns="http://www.w3.org/2000/svg">
<path fill-rule="evenodd" clip-rule="evenodd" d="M9.40791 5.22039L9.72973 5.5347L9.99717 5.78879L10.3825 5.42102L10.5864 5.22039C12.2136 3.5932 14.8518 3.5932 16.479 5.22039C18.091 6.83244 18.106 9.43677 16.524 11.0673L10.5864 17.0055C10.286 17.3059 9.81334 17.3291 9.48642 17.0749L9.40791 17.0055L3.47003 11.0676C1.88831 9.43677 1.90331 6.83244 3.51535 5.22039C5.14254 3.5932 7.78073 3.5932 9.40791 5.22039ZM8.7008 5.9275C7.46414 4.69083 5.45912 4.69083 4.22246 5.9275C3.04089 7.10907 2.98697 8.99511 4.05807 10.2307L4.17713 10.3605L9.99576 16.1817L15.8063 10.3709C16.9682 9.17339 16.9952 7.28691 15.8942 6.05673L15.7719 5.9275C14.5352 4.69083 12.5302 4.69083 11.2935 5.9275L10.9585 6.25479L9.99717 7.16273L8.91377 6.13702L8.7008 5.9275Z" fill="black"/>
</svg>
