<svg width="24" height="24" viewBox="0 0 24 24" fill="none" xmlns="http://www.w3.org/2000/svg">
<path fill-rule="evenodd" clip-rule="evenodd" d="M15.6544 6.79722L15.4772 9.55466H19.4862C20.833 9.55466 21.8455 10.94 21.6418 12.318L21.6152 12.4655L20.1864 19.2095C19.9745 20.202 19.1663 20.9225 18.2096 20.9921L18.0574 20.9976L4.3501 20.9924C3.79796 20.9919 3.35047 20.5442 3.3501 19.9921V11.4118C3.3501 10.8595 3.79781 10.4118 4.3501 10.4118H6.7913L8.05324 10.3821L8.47038 10.3637L8.63817 10.3493L8.66647 10.3443C10.0216 10.0291 11.0566 7.93788 11.2466 6.06791L11.2569 5.90795L11.2787 5.33552L11.3008 5.06045C11.3741 4.35257 11.5999 3.52042 12.3812 3.17748C14.435 2.27605 15.7671 5.01232 15.6544 6.79722ZM12.8635 4.2763C12.7037 4.34643 12.5818 4.57088 12.5181 4.99022L12.4969 5.15669L12.4778 5.38109L12.4544 5.98516L12.4405 6.18924C12.1879 8.6748 10.8257 11.0741 8.93836 11.5131L8.84107 11.5313L8.6379 11.5537L8.45636 11.5661L8.2001 11.576V19.794L18.0139 19.7984L18.1226 19.7952C18.5045 19.7674 18.8441 19.4909 18.9785 19.086L19.0125 18.9608L20.4342 12.2533L20.4547 12.1425C20.5534 11.4746 20.1005 10.8346 19.5837 10.7616L19.4862 10.7547H14.1976L14.4568 6.72159C14.5483 5.27314 13.5938 3.95578 12.8635 4.2763ZM7.0001 11.607L6.7913 11.6118L4.5491 11.611V19.792L7.0001 19.793V11.607Z" fill="black"/>
</svg>
