<svg width="24" height="24" viewBox="0 0 24 24" fill="none" xmlns="http://www.w3.org/2000/svg">
<path fill-rule="evenodd" clip-rule="evenodd" d="M2.68962 5.04741C3.11962 4.00441 3.79262 3.74141 4.28062 3.70441C5.35762 3.63541 7.07062 4.34841 10.9016 10.7084C11.1827 11.1747 11.6153 11.9123 11.9967 12.5663C12.3781 11.9123 12.8106 11.1747 13.0917 10.7084C16.9227 4.34841 18.6357 3.63541 19.7127 3.70441C20.2007 3.74141 20.8737 4.00441 21.3037 5.04741C22.4047 7.70941 20.7057 15.8054 18.9937 18.8154C18.5345 19.6262 17.8761 20.3083 16.8927 20.3024C14.9619 20.3024 13.0419 17.4132 11.9967 15.5325C10.9514 17.4132 9.03147 20.3024 7.10062 20.3024C6.11721 20.3083 5.45888 19.6262 4.99962 18.8154C3.28762 15.8054 1.58863 7.70941 2.68962 5.04741ZM9.40256 11.6114C7.51317 8.47472 6.22837 6.87499 5.36938 6.07959C4.95006 5.69132 4.68382 5.54378 4.55196 5.48828C4.50645 5.46913 4.47381 5.45932 4.44999 5.45445L4.44218 5.46441C4.4133 5.50225 4.3635 5.57863 4.30752 5.71443L4.30676 5.71626C4.17727 6.02935 4.06501 6.72851 4.09471 7.85217C4.12289 8.91813 4.27179 10.1805 4.51105 11.4853C4.9991 14.147 5.80843 16.6978 6.52078 17.9502L6.52232 17.9529C6.68769 18.2449 6.83251 18.4088 6.93508 18.4894C7.00991 18.5482 7.04356 18.5527 7.09006 18.5524L7.10062 18.5524C7.17988 18.5524 7.48816 18.4904 8.03537 18.0032C8.54894 17.5459 9.07778 16.8865 9.5724 16.1509C10.0589 15.4273 10.4704 14.6935 10.7622 14.1346C10.7821 14.0966 10.8013 14.0595 10.8199 14.0233L10.5655 13.5861C10.1651 12.8989 9.69604 12.0982 9.40256 11.6114ZM14.5908 11.6114C16.4802 8.47472 17.765 6.87499 18.624 6.07959C19.0433 5.69132 19.3095 5.54378 19.4414 5.48828C19.4869 5.46913 19.5195 5.45932 19.5434 5.45445L19.5512 5.46441C19.58 5.50225 19.6298 5.57863 19.6858 5.71443L19.6866 5.71626C19.8161 6.02935 19.9283 6.72851 19.8986 7.85217C19.8705 8.91813 19.7216 10.1805 19.4823 11.4853C18.9942 14.147 18.1849 16.6978 17.4726 17.9502L17.471 17.9529C17.3057 18.2449 17.1608 18.4088 17.0583 18.4894C16.9834 18.5482 16.9498 18.5527 16.9033 18.5524L16.8927 18.5524C16.8135 18.5524 16.5052 18.4904 15.958 18.0032C15.4444 17.5459 14.9156 16.8865 14.421 16.1509C13.9344 15.4273 13.523 14.6935 13.2311 14.1346C13.2113 14.0966 13.1921 14.0595 13.1734 14.0233L13.4279 13.5861C13.8282 12.8989 14.2973 12.0982 14.5908 11.6114Z" fill="black"/>
</svg>
