<svg width="24" height="24" viewBox="0 0 24 24" fill="none" xmlns="http://www.w3.org/2000/svg">
<path d="M12.7129 20.8571C12.6339 21.2918 12.9224 21.7082 13.3571 21.7871C13.7918 21.8661 14.2082 21.5776 14.2871 21.1429L12.7129 20.8571ZM6.18082 18.7664C5.77568 18.9427 5.59015 19.414 5.76643 19.8192C5.94271 20.2243 6.41404 20.4098 6.81918 20.2336L6.18082 18.7664ZM10.5537 20.6639C10.9204 20.9104 11.4175 20.813 11.6639 20.4463C11.9104 20.0796 11.813 19.5825 11.4463 19.3361L10.5537 20.6639ZM13.5 16.5L12.7347 16.733L13.5 16.5ZM8.5 19L8.51989 18.2002L8.5 19ZM12 13.7513C11.3522 14.2206 11.3521 14.2206 11.3521 14.2205C11.3521 14.2205 11.352 14.2205 11.352 14.2205C11.352 14.2204 11.352 14.2204 11.352 14.2204C11.352 14.2204 11.3521 14.2205 11.3522 14.2208C11.3525 14.2212 11.3531 14.2219 11.3539 14.2231C11.3556 14.2254 11.3583 14.2292 11.362 14.2343C11.3694 14.2447 11.3807 14.2606 11.3955 14.2817C11.4251 14.3238 11.4686 14.3863 11.5222 14.4653C11.6297 14.6238 11.7766 14.8468 11.9338 15.104C12.2583 15.6351 12.5878 16.2503 12.7347 16.733L14.2653 16.267C14.0561 15.5798 13.6356 14.8206 13.2991 14.2699C13.1258 13.9861 12.9645 13.7413 12.8464 13.5672C12.7872 13.4799 12.7385 13.4099 12.7042 13.3611C12.687 13.3368 12.6734 13.3176 12.6639 13.3043C12.6591 13.2976 12.6554 13.2923 12.6527 13.2886C12.6513 13.2867 12.6502 13.2852 12.6494 13.2841C12.649 13.2836 12.6487 13.2831 12.6484 13.2827C12.6483 13.2825 12.6482 13.2824 12.6481 13.2822C12.648 13.2822 12.648 13.2821 12.6479 13.2821C12.6479 13.282 12.6478 13.2819 12 13.7513ZM12.7347 16.733C12.9452 17.4246 12.9568 18.4246 12.8939 19.3246C12.8634 19.7602 12.8176 20.1468 12.7794 20.4242C12.7604 20.5626 12.7433 20.6731 12.7312 20.7479C12.7252 20.7853 12.7204 20.8137 12.7172 20.8323C12.7156 20.8415 12.7144 20.8483 12.7137 20.8525C12.7133 20.8546 12.7131 20.856 12.7129 20.8568C12.7129 20.8572 12.7128 20.8574 12.7128 20.8574C12.7128 20.8575 12.7128 20.8575 12.7128 20.8574C12.7128 20.8574 12.7128 20.8573 12.7128 20.8573C12.7128 20.8572 12.7129 20.8571 13.5 21C14.2871 21.1429 14.2872 21.1428 14.2872 21.1427C14.2872 21.1426 14.2872 21.1425 14.2872 21.1423C14.2873 21.1421 14.2873 21.1418 14.2874 21.1415C14.2875 21.1409 14.2876 21.1401 14.2878 21.1391C14.2882 21.1372 14.2886 21.1345 14.2892 21.1312C14.2904 21.1246 14.292 21.1154 14.294 21.1036C14.2981 21.08 14.3038 21.0463 14.3107 21.0033C14.3246 20.9174 14.3436 20.7945 14.3645 20.6424C14.4063 20.3387 14.4564 19.9156 14.49 19.4363C14.555 18.5066 14.5666 17.2566 14.2653 16.267L12.7347 16.733ZM6.5 19.5C6.81918 20.2336 6.81909 20.2336 6.81901 20.2336C6.81898 20.2337 6.8189 20.2337 6.81886 20.2337C6.81877 20.2337 6.8187 20.2338 6.81865 20.2338C6.81854 20.2338 6.8185 20.2339 6.81854 20.2338C6.81861 20.2338 6.81895 20.2337 6.81958 20.2334C6.82082 20.2329 6.82315 20.2319 6.82654 20.2304C6.8333 20.2276 6.84423 20.2229 6.85894 20.2169C6.88839 20.2047 6.9328 20.1866 6.98915 20.1647C7.10237 20.1207 7.26103 20.0622 7.44148 20.0046C7.82744 19.8814 8.21959 19.7933 8.48011 19.7998L8.51989 18.2002C7.97557 18.1867 7.36772 18.3486 6.95489 18.4804C6.73595 18.5503 6.54551 18.6205 6.40949 18.6734C6.34122 18.6999 6.28597 18.7224 6.24692 18.7385C6.22738 18.7466 6.21184 18.7532 6.2007 18.7579C6.19513 18.7603 6.19066 18.7622 6.18733 18.7636C6.18567 18.7643 6.18429 18.7649 6.1832 18.7654C6.18266 18.7656 6.18219 18.7658 6.18179 18.766C6.18159 18.7661 6.18141 18.7662 6.18125 18.7662C6.18117 18.7663 6.18106 18.7663 6.18102 18.7663C6.18092 18.7664 6.18082 18.7664 6.5 19.5ZM8.48011 19.7998C8.81743 19.8081 9.30727 19.9858 9.78651 20.2254C10.0101 20.3372 10.2053 20.4489 10.3444 20.5327C10.4136 20.5744 10.4681 20.6087 10.5043 20.6318C10.5224 20.6434 10.5359 20.6522 10.5442 20.6577C10.5484 20.6605 10.5514 20.6624 10.553 20.6635C10.5538 20.664 10.5542 20.6643 10.5544 20.6644C10.5544 20.6644 10.5544 20.6644 10.5543 20.6643C10.5542 20.6643 10.5542 20.6643 10.5541 20.6642C10.554 20.6642 10.5539 20.6641 10.5539 20.6641C10.5538 20.664 10.5537 20.6639 11 20C11.4463 19.3361 11.4462 19.336 11.4461 19.3359C11.446 19.3359 11.4459 19.3358 11.4458 19.3357C11.4456 19.3356 11.4454 19.3355 11.4452 19.3353C11.4447 19.335 11.4442 19.3346 11.4435 19.3342C11.4423 19.3334 11.4406 19.3323 11.4387 19.331C11.4347 19.3283 11.4294 19.3248 11.4227 19.3204C11.4094 19.3117 11.3907 19.2995 11.3671 19.2844C11.3199 19.2542 11.253 19.2122 11.17 19.1621C11.0046 19.0625 10.7719 18.9292 10.5019 18.7942C9.99392 18.5403 9.23376 18.218 8.51989 18.2002L8.48011 19.7998Z" fill="#07C160" style="fill:#07C160;fill-opacity:1;"/>
<path d="M19.2 14C19.2 14 18.844 15.2662 18.2 16C17.6536 16.6227 16.2 17.5 16.2 17.5" stroke="#07C160" style="stroke:#07C160;stroke-opacity:1;" stroke-width="1.6" stroke-linecap="round"/>
<path fill-rule="evenodd" clip-rule="evenodd" d="M7.12619 1.58712C5.7757 2.21687 5.56794 3.58175 5.51537 4.45562C5.50208 4.67652 5.49766 4.89159 5.49384 5.07793V5.07794L5.49329 5.10458C5.48915 5.30549 5.48527 5.46345 5.47446 5.59617L5.47149 5.62994C5.31384 5.65493 5.09223 5.6634 4.78127 5.6617L4.70032 5.66116H4.7003C4.5139 5.65982 4.29834 5.65827 4.10055 5.67073C3.88134 5.68455 3.58903 5.71913 3.31897 5.84506C2.82575 6.07505 2.46479 6.42526 2.26384 6.87925C2.07113 7.31462 2.05913 7.7695 2.11137 8.16634C2.20905 8.90834 2.57001 9.6817 2.81837 10.2138L2.84041 10.2611C4.01452 12.7789 5.56161 14.2057 7.39788 14.7059C9.20091 15.197 11.0973 14.7413 12.8738 13.9129C14.6503 13.0845 16.2184 11.9247 17.0011 10.2278C17.7983 8.49967 17.6998 6.3974 16.5257 3.87952L16.5036 3.83227C16.2557 3.29998 15.8953 2.52637 15.3896 1.97459C15.1192 1.67948 14.763 1.39628 14.3057 1.26405C13.8287 1.12617 13.3284 1.17758 12.8352 1.40757C12.5651 1.5335 12.3508 1.73519 12.1993 1.89424C12.0626 2.03774 11.9252 2.20388 11.8064 2.34754L11.7548 2.40989C11.5562 2.64919 11.4073 2.81352 11.2868 2.91821L11.259 2.89879C11.1504 2.82176 11.0269 2.72319 10.8703 2.59723L10.8496 2.58052L10.8495 2.58045C10.7043 2.46362 10.5367 2.32878 10.359 2.19699C9.6558 1.67555 8.47669 0.957376 7.12619 1.58712Z" fill="#FA5151" style="fill:#FA5151;fill-opacity:1;"/>
</svg>
