<svg width="24" height="24" viewBox="0 0 24 24" xmlns="http://www.w3.org/2000/svg" xmlns:xlink="http://www.w3.org/1999/xlink"><title>icons_filled_camera</title><desc>Created with Sketch.</desc><g id="icons_filled_camera" stroke="none" stroke-width="1" fill="none" fill-rule="evenodd"><g id="icon20" fill="#000"><path d="M14.7324081 4C14.8995847 4 15.0557004 4.08355057 15.1484333 4.2226499L17 7h4C21.5522847 7 22 7.44771525 22 8V19C22 19.5522847 21.5522847 20 21 20H3C2.44771525 20 2 19.5522847 2 19V8C2 7.44771525 2.44771525 7 3 7H7L8.85156673 4.2226499C8.94429962 4.08355057 9.10041529 4 9.26759188 4H14.7324081zM12 16.5C13.9329966 16.5 15.5 14.9329966 15.5 13 15.5 11.0670034 13.9329966 9.5 12 9.5 10.0670034 9.5 8.5 11.0670034 8.5 13 8.5 14.9329966 10.0670034 16.5 12 16.5z" id="Combined-Shape"/></g></g></svg>