<svg width="24" height="24" viewBox="0 0 24 24" xmlns="http://www.w3.org/2000/svg" xmlns:xlink="http://www.w3.org/1999/xlink"><title>icons_outlined_time</title><desc>Created with Sketch.</desc><defs/><g id="icons_outlined_time" stroke="none" stroke-width="1" fill="none" fill-rule="evenodd"><g id="icon21" fill="#000" fill-rule="nonzero"><path d="M12.5999997 11.5029437 16.4911685 15.3941125 15.6426403 16.2426407 11.3999996 12V6H12.5999997V11.5029437zM12 22C6.4771525 22 2 17.5228475 2 12 2 6.4771525 6.4771525 2 12 2 17.5228475 2 22 6.4771525 22 12 22 17.5228475 17.5228475 22 12 22zM12 20.8C16.8601058 20.8 20.8 16.8601058 20.8 12 20.8 7.1398942 16.8601058 3.2 12 3.2 7.1398942 3.2 3.2 7.1398942 3.2 12 3.2 16.8601058 7.1398942 20.8 12 20.8z" id="Combined-Shape"/></g></g></svg>