<?xml version="1.0" encoding="UTF-8"?>
<svg width="66px" height="66px" viewBox="0 0 66 66" version="1.1" xmlns="http://www.w3.org/2000/svg" xmlns:xlink="http://www.w3.org/1999/xlink">
    <!-- Generator: Sketch 41.2 (35397) - http://www.bohemiancoding.com/sketch -->
    <title>fail</title>
    <desc>Created with Sketch.</desc>
    <defs></defs>
    <g id="andriod切图" stroke="none" stroke-width="1" fill="none" fill-rule="evenodd">
        <g id="fail" fill="#F76260">
            <g id="Error" transform="translate(3.000000, 3.000000)">
                <path d="M57,30.3703704 C57,15.0879654 44.9120346,3 29.6296296,3 C14.9859576,3 3,15.1921428 3,30.3703704 C3,44.9120346 15.0879654,57 29.6296296,57 C44.8078572,57 57,45.0140424 57,30.3703704 Z M60,30.3703704 C60,46.5688889 46.5688889,60 29.6296296,60 C13.4311111,60 0,46.5688889 0,30.3703704 C0,13.4311111 13.4311111,0 29.6296296,0 C46.5688889,0 60,13.4311111 60,30.3703704 Z" id="Combined-Shape"></path>
                <path d="M30,45 C31.6568542,45 33,43.6568542 33,42 C33,40.3431458 31.6568542,39 30,39 C28.3431458,39 27,40.3431458 27,42 C27,43.6568542 28.3431458,45 30,45 Z M28.498576,15 C27.6709353,15 27.0321392,15.6749231 27.0711159,16.4934332 L28,36 L32,36 L32.9288841,16.4934332 C32.9681603,15.6686328 32.3349702,15 31.501424,15 L28.498576,15 Z" id="Path"></path>
            </g>
        </g>
    </g>
</svg>