<svg width="24" height="24" viewBox="0 0 24 24" xmlns="http://www.w3.org/2000/svg" xmlns:xlink="http://www.w3.org/1999/xlink"><title>icons_filled_favorites</title><desc>Created with Sketch.</desc><g id="icons_filled_favorites" stroke="none" stroke-width="1" fill="none" fill-rule="evenodd"><g id="Fav" fill="#000"><path d="M20.1991242 6.40020803 12 11.1339746 3.80085813 6.40019783C3.82136925 6.38681955 3.8420775 6.37414138 3.86295784 6.36220591L11.1370422 2.20424535C11.6136406 1.93181552 12.3867187 1.93202094 12.8629578 2.20424535l7.2740844 4.15796056C20.1579176 6.37413857 20.1786199 6.38682047 20.1991242 6.40020803zM20.9896226 7.67586436C20.9964541 7.72902115 21 7.7814606 21 7.83272697V16.167273C21 16.7069896 20.6132812 17.3655697 20.1370422 17.6377941L12.8629578 21.7957547C12.8269153 21.816357 12.7891771 21.8354002 12.75 21.8528844V12.4330127L20.9896226 7.67586436zM11.25 21.8528815C11.210819 21.8353971 11.1730807 21.8163547 11.1370422 21.7957547L3.86295784 17.6377941C3.38635938 17.3653643 3 16.7024094 3 16.167273V7.83272697C3 7.7813482 3.00350454 7.72889226 3.01025723 7.675795L11.25 12.4330127V21.8528815z" id="Combined-Shape"/></g></g></svg>