<svg width="40" height="40" viewBox="0 0 40 40" xmlns="http://www.w3.org/2000/svg" xmlns:xlink="http://www.w3.org/1999/xlink"><title>常规/fileicon_photo_icon@1x</title><g id="常规/fileicon_photo_icon" stroke="none" stroke-width="1" fill="none" fill-rule="evenodd"><path d="M7 0H33C34.1045695-216501571e-23 35 .8954305 35 2V38C35 39.1045695 34.1045695 40 33 40H7C5.8954305 40 5 39.1045695 5 38V2C5 .8954305 5.8954305 202906125e-24 7 0zM33 0C34.1045695-202906125e-24 35 .8954305 35 2v9C34.9988493 10.4851446 34.8035889 9.97516175 34.4142136 9.58578644L25.4142136.585786438C25.0242031.195775994 24.5131914.000514185843 24.0020204 101420586e-14L24 0h9z" id="形状结合备份-7" fill="#f2f2f2"/><path d="M35 11.2546019C35 10.8416514 34.9535872 10.6745401 34.8664336 10.5115771 34.7792801 10.3486142 34.6513858 10.2207199 34.4884229 10.1335664 34.3458303 10.057307 34.2000616 10.0122398 33.8892029 10.0021645L33.7453981 10H26C25.4477153 10 25 9.55228475 25 9V1.25460192C25 .841651367 24.9535872.674540111 24.8664336.511577148 24.7792801.348614185 24.6513858.220719898 24.4884229.133566352 24.3458303.0573069989 24.2000616.0122397755 23.8892029.00216452201L23.7453981 467696131e-25 24.0020204 101420586e-14C24.5131914.000514185843 25.0242031.195775994 25.4142136.585786438v0L34.4142136 9.58578644C34.8035889 9.97516175 34.9988493 10.4851446 35 11v0V11.2546019z" id="形状结合" fill="#000" opacity=".1"/><g id="Group" transform="translate(10.879289, 12.000000)" fill="#000" fill-opacity=".3" fill-rule="nonzero"><path d="M15.8207105 6.9C16.2625383 6.9 16.6207105 7.2581722 16.6207105 7.7V18.1C16.6207105 18.5418278 16.2625383 18.9 15.8207105 18.9H2.42071051C1.97888271 18.9 1.62071051 18.5418278 1.62071051 18.1V7.7C1.62071051 7.2581722 1.97888271 6.9 2.42071051 6.9H15.8207105zM6.70671051 12.382 2.81971051 15.525 2.82071051 17.7H15.4207105V15.742L13.1207105 13.672 11.5464772 15.088292 12.5146252 15.947417 10.7204576 15.95 6.70671051 12.382zM15.4207105 8.1H2.82071051L2.81971051 13.981 6.07602123 11.349663C6.45622296 11.0422659 7.00295188 11.0548575 7.3685988 11.3794321L10.7944772 14.420292 12.5855387 12.8089734C12.8897827 12.5351538 13.3516383 12.5351538 13.6558823 12.8089734L15.4207105 14.397V8.1z" id="形状结合备份-2"/></g></g></svg>