<svg width="40" height="40" viewBox="0 0 40 40" xmlns="http://www.w3.org/2000/svg" xmlns:xlink="http://www.w3.org/1999/xlink"><title>常规/fileicon_pages_icon@1x</title><g id="常规/fileicon_pages_icon" stroke="none" stroke-width="1" fill="none" fill-rule="evenodd"><g id="Group-2备份-7"><path id="Rectangle" d="M0 0h40v40H0z"/><path d="M7 0H33C34.1045695-216501571e-23 35 .8954305 35 2V38C35 39.1045695 34.1045695 40 33 40H7C5.8954305 40 5 39.1045695 5 38V2C5 .8954305 5.8954305 202906125e-24 7 0zM33 0C34.1045695-202906125e-24 35 .8954305 35 2v9C34.9988493 10.4851446 34.8035889 9.97516175 34.4142136 9.58578644L25.4142136.585786438C25.0242031.195775994 24.5131914.000514185843 24.0020204 101420586e-14L24 0h9z" id="形状结合备份-7" fill="#ff9200"/><g id="Numbers" transform="translate(9.000000, 14.333333)" fill="#fff"><g id="icon" transform="translate(4.666667, 4.333333)"><rect id="Rectangle-12" x="0" y="11.6666667" width="12.6666667" height="1" rx=".5"/><path d="M6.11197242 12.1602068 5.9348271 13.2158319C5.92438123 13.2780798 5.86545131 13.3200736 5.80320343 13.3096277 5.75513625 13.3015615 5.71747379 13.2638991 5.70940759 13.2158319L5.53226227 12.1602068C5.51798582 11.9652448 5.50403898 11.7731471 5.49042175 11.5839139H6.15381294C6.14019571 11.7731471 6.12624887 11.9652448 6.11197242 12.1602068zM6.19490602 11.0073805H5.44932867C5.22724871 7.8604429 5.10229614 5.55757214 5.07447094 4.09876821H6.56976375C6.54193855 5.55757214 6.41698598 7.8604429 6.19490602 11.0073805zM5.86259515-1.65797501C6.1649713-1.65793515 6.41497381-1.42233886 6.43306184-1.12050418 6.52818215.58506293 6.5757423 2.13317872 6.5757423 3.52384317H5.06849239v0C5.06849239 2.13317872 5.11605254.58506293 5.21117285-1.12050418 5.22926088-1.42233886 5.47926339-1.65793515 5.78163954-1.65797501H5.86259515z" id="Combined-Shape" transform="translate(5.822117, 5.822117) rotate(45.000000) translate(-5.822117, -5.822117)"/></g></g><path d="M35 11.2546019C35 10.8416514 34.9535872 10.6745401 34.8664336 10.5115771 34.7792801 10.3486142 34.6513858 10.2207199 34.4884229 10.1335664 34.3458303 10.057307 34.2000616 10.0122398 33.8892029 10.0021645L33.7453981 10H26C25.4477153 10 25 9.55228475 25 9V1.25460192C25 .841651367 24.9535872.674540111 24.8664336.511577148 24.7792801.348614185 24.6513858.220719898 24.4884229.133566352 24.3458303.0573069989 24.2000616.0122397755 23.8892029.00216452201L23.7453981 467696131e-25 24.0020204 101420586e-14C24.5131914.000514185843 25.0242031.195775994 25.4142136.585786438v0L34.4142136 9.58578644C34.8035889 9.97516175 34.9988493 10.4851446 35 11v0V11.2546019z" id="形状结合" fill="#000" opacity=".2"/></g></g></svg>