<svg width="40" height="40" viewBox="0 0 40 40" xmlns="http://www.w3.org/2000/svg" xmlns:xlink="http://www.w3.org/1999/xlink"><title>常规/fileicon_zip_icon@1x</title><g id="常规/fileicon_zip_icon" stroke="none" stroke-width="1" fill="none" fill-rule="evenodd"><g id="Group-2备份-4"><path id="Rectangle" d="M0 0h40v40H0z"/><path d="M7 0H33C34.1045695-216501571e-23 35 .8954305 35 2V38C35 39.1045695 34.1045695 40 33 40H7C5.8954305 40 5 39.1045695 5 38V2C5 .8954305 5.8954305 202906125e-24 7 0zM33 0C34.1045695-202906125e-24 35 .8954305 35 2v9C34.9988493 10.4851446 34.8035889 9.97516175 34.4142136 9.58578644L25.4142136.585786438C25.0242031.195775994 24.5131914.000514185843 24.0020204 101420586e-14L24 0h9z" id="形状结合备份-7" fill="#8b572a"/><path d="M19.6666667 3.33333333V355271368e-22H21.7777778C22.0846026 356322669e-22 22.3333333.248730695 22.3333333.555555556V2.77777778C22.3333333 3.08460264 22.0846026 3.33333333 21.7777778 3.33333333H20.3333333V6.66666667H18.2222222C17.9153974 6.66666667 17.6666667 6.41793597 17.6666667 6.11111111V3.88888889C17.6666667 3.58206403 17.9153974 3.33333333 18.2222222 3.33333333H19.6666667zm0 6.66666667V6.66666667H21.7777778C22.0846026 6.66666667 22.3333333 6.91539736 22.3333333 7.22222222V9.44444444C22.3333333 9.75126931 22.0846026 10 21.7777778 10H20.3333333V13.3333333H18.2222222C17.9153974 13.3333333 17.6666667 13.0846026 17.6666667 12.7777778V10.5555556C17.6666667 10.2487307 17.9153974 10 18.2222222 10H19.6666667zm0 3.3333332999999996H21.7777778C22.0846026 13.3333333 22.3333333 13.582064 22.3333333 13.8888889V16.1111111C22.3333333 16.417936 22.0846026 16.6666667 21.7777778 16.6666667H19.6666667v0V13.3333333z" id="Combined-Shape" fill="#fff"/><path d="M21.7777778 18.6666667C22.0846026 18.6666667 22.3333333 18.9153974 22.3333333 19.2222222V28.1111111C22.3333333 28.417936 22.0846026 28.6666667 21.7777778 28.6666667H18.2222222C17.9153974 28.6666667 17.6666667 28.417936 17.6666667 28.1111111V19.2222222C17.6666667 18.9153974 17.9153974 18.6666667 18.2222222 18.6666667H21.7777778zM21.3333333 24H18.6666667V27.6666667H21.3333333V24z" id="Combined-Shape" fill="#fff"/><path d="M35 11.2546019C35 10.8416514 34.9535872 10.6745401 34.8664336 10.5115771 34.7792801 10.3486142 34.6513858 10.2207199 34.4884229 10.1335664 34.3458303 10.057307 34.2000616 10.0122398 33.8892029 10.0021645L33.7453981 10H26C25.4477153 10 25 9.55228475 25 9V1.25460192C25 .841651367 24.9535872.674540111 24.8664336.511577148 24.7792801.348614185 24.6513858.220719898 24.4884229.133566352 24.3458303.0573069989 24.2000616.0122397755 23.8892029.00216452201L23.7453981 467696131e-25 24.0020204 101420586e-14C24.5131914.000514185843 25.0242031.195775994 25.4142136.585786438v0L34.4142136 9.58578644C34.8035889 9.97516175 34.9988493 10.4851446 35 11v0V11.2546019z" id="形状结合" fill="#000" opacity=".2"/></g></g></svg>