<svg width="40" height="40" viewBox="0 0 40 40" fill="none" xmlns="http://www.w3.org/2000/svg"><path fill-rule="evenodd" clip-rule="evenodd" d="M35 38.6667C35 39.403 34.403 40 33.6667 40H6.33333C5.59695 40 5 39.403 5 38.6667V1.33333C5 .596954 5.59695.0 6.33333.0H25L35 10V38.6667z" fill="#f2f2f2"/><path d="M21.792 31.1779C21.5377 31.5476 21.626 32.0633 22.0081 32.2986v0C22.3328 32.4986 22.7581 32.4234 22.9769 32.111 24.4149 30.0579 25.2502 27.625 25.2502 25 25.2502 22.375 24.4149 19.9421 22.9769 17.8891 22.7581 17.5767 22.3329 17.5015 22.0081 17.7015v0C21.626 17.9368 21.5377 18.4525 21.792 18.8222 23.0371 20.6321 23.7502 22.7511 23.7502 25 23.7502 27.2489 23.0371 29.368 21.792 31.1779z" fill="#000" fill-opacity=".3"/><path d="M18.9263 30.4007C19.2504 30.6003 19.6756 30.5255 19.8885 30.21 20.9092 28.6976 21.5002 26.9189 21.5002 25 21.5002 23.0811 20.9092 21.3024 19.8886 19.7901 19.6757 19.4746 19.2505 19.3997 18.9263 19.5993v0C18.5441 19.8347 18.4576 20.3508 18.7031 20.7266 19.5304 21.993 20.0002 23.4561 20.0002 25 20.0002 26.5439 19.5303 28.007 18.703 29.2734 18.4575 29.6492 18.544 30.1653 18.9263 30.4007v0z" fill="#000" fill-opacity=".3"/><path d="M15.8458 28.5037C16.1685 28.7024 16.5935 28.6283 16.7945 28.3069 17.4012 27.3371 17.7502 26.2125 17.7502 25 17.7502 23.7876 17.4012 22.663 16.7945 21.6932 16.5935 21.3718 16.1686 21.2977 15.8458 21.4964v0C15.4633 21.732 15.3811 22.2496 15.6057 22.6386 16.0195 23.3554 16.2502 24.1605 16.2502 25 16.2502 25.8396 16.0195 26.6447 15.6057 27.3615 15.3811 27.7505 15.4633 28.2681 15.8458 28.5037v0z" fill="#000" fill-opacity=".3"/><path opacity=".1" fill-rule="evenodd" clip-rule="evenodd" d="M35 10H26.3333C25.597 10 25 9.40305 25 8.66667V0L35 10z" fill="#000"/></svg>