<svg width="40" height="40" viewBox="0 0 40 40" xmlns="http://www.w3.org/2000/svg" xmlns:xlink="http://www.w3.org/1999/xlink"><title>常规/fileicon_pdf_icon@1x</title><g id="常规/fileicon_pdf_icon" stroke="none" stroke-width="1" fill="none" fill-rule="evenodd"><g id="Group-2备份-3"><path id="Rectangle" d="M0 0h40v40H0z"/><path d="M7 0H33C34.1045695-216501571e-23 35 .8954305 35 2V38C35 39.1045695 34.1045695 40 33 40H7C5.8954305 40 5 39.1045695 5 38V2C5 .8954305 5.8954305 202906125e-24 7 0zM33 0C34.1045695-202906125e-24 35 .8954305 35 2v9C34.9988493 10.4851446 34.8035889 9.97516175 34.4142136 9.58578644L25.4142136.585786438C25.0242031.195775994 24.5131914.000514185843 24.0020204 101420586e-14L24 0h9z" id="形状结合备份-7" fill="#e04848"/><path d="M35 11.2546019C35 10.8416514 34.9535872 10.6745401 34.8664336 10.5115771 34.7792801 10.3486142 34.6513858 10.2207199 34.4884229 10.1335664 34.3458303 10.057307 34.2000616 10.0122398 33.8892029 10.0021645L33.7453981 10H26C25.4477153 10 25 9.55228475 25 9V1.25460192C25 .841651367 24.9535872.674540111 24.8664336.511577148 24.7792801.348614185 24.6513858.220719898 24.4884229.133566352 24.3458303.0573069989 24.2000616.0122397755 23.8892029.00216452201L23.7453981 467696131e-25 24.0020204 101420586e-14C24.5131914.000514185843 25.0242031.195775994 25.4142136.585786438v0L34.4142136 9.58578644C34.8035889 9.97516175 34.9988493 10.4851446 35 11v0V11.2546019z" id="形状结合" fill="#000" opacity=".2"/><path d="M12.3385417 28.6666667v-2.484375H13.859375C15.3802083 26.1822917 16.4479167 25.1666667 16.4479167 23.6666667c0-1.5-1.0364584000000008-2.515625-2.53125-2.515625h-2.921875v7.515625h1.34375zM13.5572917 25.0989583h-1.21875V22.25H13.5625C14.5260417 22.25 15.0833333 22.765625 15.0833333 23.6666667 15.0833333 24.578125 14.5208333 25.0989583 13.5572917 25.0989583zM20.171875 28.6666667C22.421875 28.6666667 23.7447917 27.2708333 23.7447917 24.890625 23.7447917 22.5104167 22.4166667 21.1510417 20.171875 21.1510417H17.4270833v7.515625H20.171875zM20.03125 27.53125H18.7708333V22.2864583H20.03125c1.5.0 2.34375.9270834000000008 2.34375 2.609375C22.375 26.609375 21.5416667 27.53125 20.03125 27.53125zM26.1510417 28.6666667V25.5989583H29.3020833v-1.09375H26.1510417v-2.21875H29.5989583V21.1510417H24.8072917v7.515625h1.34375z" id="PDF" fill="#fff" fill-rule="nonzero"/></g></g></svg>