<svg width="40" height="40" viewBox="0 0 40 40" xmlns="http://www.w3.org/2000/svg" xmlns:xlink="http://www.w3.org/1999/xlink"><title>app_attach_file_icon_ofd180</title><g id="app_attach_file_icon_ofd" stroke="none" stroke-width="1" fill="none" fill-rule="evenodd"><g id="编组-19"><path id="Rectangle" d="M0 0h40v40H0z"/><g id="编组-8备份-4" transform="translate(5.000000, 0.000000)"><path d="M2 0H28C29.1045695-216501571e-23 30 .8954305 30 2V38C30 39.1045695 29.1045695 40 28 40H2C.8954305 40 13527075e-23 39.1045695.0 38V2C-13527075e-23.8954305.8954305 202906125e-24 2 0zM28 0C29.1045695-202906125e-24 30 .8954305 30 2v9C29.9988493 10.4851446 29.8035889 9.97516175 29.4142136 9.58578644l-9-9.000000002C20.0242031.195775994 19.5131914.000514185843 19.0020204 101420586e-14L19 0h9z" id="形状结合备份-7" fill="#74a800"/><path d="M30 11.2546019C30 10.8416514 29.9535872 10.6745401 29.8664336 10.5115771 29.7792801 10.3486142 29.6513858 10.2207199 29.4884229 10.1335664 29.3458303 10.057307 29.2000616 10.0122398 28.8892029 10.0021645L28.7453981 10H21C20.4477153 10 20 9.55228475 20 9V1.25460192C20 .841651367 19.9535872.674540111 19.8664336.511577148 19.7792801.348614185 19.6513858.220719898 19.4884229.133566352 19.3458303.0573069989 19.2000616.0122397755 18.8892029.00216452201L18.7453981 467696131e-25 19.0020204 101420586e-14C19.5131914.000514185843 20.0242031.195775994 20.4142136.585786438v0l9 9.000000002C29.8035889 9.97516175 29.9988493 10.4851446 30 11v0V11.2546019z" id="形状结合" fill="#000" opacity=".2"/><g id="OFD" transform="translate(5.380859, 20.836914)" fill="#fff" fill-rule="nonzero"><path d="M3.34472656.0C1.2890625.0.0 1.40136719.0 3.64257812.0 5.88378906 1.2890625 7.28027344 3.34472656 7.28027344c2.05078125.0 3.33984375-1.3964843800000004 3.33984375-3.63769532C6.68457031 1.40136719 5.39550781.0 3.34472656.0zm0 1.07421875c1.2548828200000006.0 2.05566406.99609375 2.05566406 2.56835938C5.40039062 5.20996094 4.59960938 6.20605469 3.34472656 6.20605469 2.08496094 6.20605469 1.2890625 5.20996094 1.2890625 3.64257813c0-1.57226563.7958984400000002-2.56835938 2.05566406-2.56835938z" id="形状"/><path id="路径" d="M8.9453125 7.16308594V4.28710938H11.8994141V3.26171875H8.9453125V1.18164062H12.1777344V.1171875H7.68554688V7.16308594z"/><path d="M13.0908203.1171875V7.16308594H15.6640625C17.7734375 7.16308594 19.0136719 5.85449219 19.0136719 3.62304688 19.0136719 1.39160156 17.7685547.1171875 15.6640625.1171875H13.0908203zM14.3505859 1.18164062H15.5322266C16.9384766 1.18164062 17.7294922 2.05078125 17.7294922 3.62792969 17.7294922 5.234375 16.9482422 6.09863281 15.5322266 6.09863281H14.3505859V1.18164062z" id="形状"/></g></g></g></g></svg>