<svg width="40" height="40" viewBox="0 0 40 40" xmlns="http://www.w3.org/2000/svg" xmlns:xlink="http://www.w3.org/1999/xlink"><title>常规/app_attach_file_icon_epub@1x</title><g id="常规/app_attach_file_icon_epub" stroke="none" stroke-width="1" fill="none" fill-rule="evenodd"><g id="Group-2备份-8"><path id="Rectangle" d="M0 0h40v40H0z"/><path d="M7 0H33C34.1045695-216501571e-23 35 .8954305 35 2V38C35 39.1045695 34.1045695 40 33 40H7C5.8954305 40 5 39.1045695 5 38V2C5 .8954305 5.8954305 202906125e-24 7 0zM33 0C34.1045695-202906125e-24 35 .8954305 35 2v9C34.9988493 10.4851446 34.8035889 9.97516175 34.4142136 9.58578644L25.4142136.585786438C25.0242031.195775994 24.5131914.000514185843 24.0020204 101420586e-14L24 0h9z" id="形状结合备份-7" fill="#75bc00"/><path d="M24.618919 21.6803369 21.2720584 18.3086848C20.5690582 17.6004772 19.4270789 17.6006136 18.722644 18.3102666L13.4701158 23.6017024C12.7652729 24.3117664 12.7649779 25.461222 13.4685456 26.1700013L18.7279416 31.4683558C19.4309418 32.1765635 20.5729211 32.176427 21.277356 31.466774L26.5298842 26.1753382C27.2347271 25.4652742 27.2350221 24.3158186 26.5314544 23.6070393L26.3715648 23.4459652 20.0015214 29.863194 19.1251985 28.9803799 15.9385699 25.7701466 15.062247 24.8873325 19.9991632 19.9138465 21.7518091 21.6794748 18.5667017 24.8881754 20.0006846 26.3327804 24.618919 21.6803369z" id="Rectangle-64" fill="#fff" fill-rule="nonzero"/><path d="M35 11.2546019C35 10.8416514 34.9535872 10.6745401 34.8664336 10.5115771 34.7792801 10.3486142 34.6513858 10.2207199 34.4884229 10.1335664 34.3458303 10.057307 34.2000616 10.0122398 33.8892029 10.0021645L33.7453981 10H26C25.4477153 10 25 9.55228475 25 9V1.25460192C25 .841651367 24.9535872.674540111 24.8664336.511577148 24.7792801.348614185 24.6513858.220719898 24.4884229.133566352 24.3458303.0573069989 24.2000616.0122397755 23.8892029.00216452201L23.7453981 467696131e-25 24.0020204 101420586e-14C24.5131914.000514185843 25.0242031.195775994 25.4142136.585786438v0L34.4142136 9.58578644C34.8035889 9.97516175 34.9988493 10.4851446 35 11v0V11.2546019z" id="形状结合" fill="#000" opacity=".2"/></g></g></svg>