<svg width="40" height="40" viewBox="0 0 40 40" xmlns="http://www.w3.org/2000/svg" xmlns:xlink="http://www.w3.org/1999/xlink"><title>fileicon_unknown_icon_light@1x</title><g id="fileicon_unknown_icon_light" stroke="none" stroke-width="1" fill="none" fill-rule="evenodd"><g id="Group" transform="translate(5.000000, 0.000000)"><path d="M30 38.6666667C30 39.4030463 29.4030463 40 28.6666667 40H1.33333333C.596953667 40 14967169e-21 39.4030463 142108547e-22 38.6666667V1.33333333C143427188e-22.596953667.596953667-530863065e-24 1.33333333.0H20L30 10V38.6666667z" id="Combined-Shape" fill="#f2f2f2"/><path d="M15.5395349 26.9508197V26.3736339C15.5395349 25.4412568 15.8744186 24.9439891 17.055814 24.2780055 18.2465116 23.5942623 19 22.6086066 19 21.2144809 19 19.3852459 17.4 18 15.055814 18 12.4418605 18 11.1023256 19.5273224 11 21.4453552H12.5906977C12.6930233 20.1755464 13.5860465 19.3852459 14.9906977 19.3852459 16.3767442 19.3852459 17.2697674 20.193306 17.2697674 21.2943989 17.2697674 22.2445355 16.8511628 22.8039617 15.772093 23.4344262 14.4976744 24.1625683 13.9023256 24.9617486 13.9116279 26.1338798V26.9508197H15.5395349zM14.7302326 31C15.3348837 31 15.7906977 30.5560109 15.7906977 29.9877049 15.7906977 29.4105191 15.3348837 28.9754098 14.7302326 28.9754098 14.1348837 28.9754098 13.6697674 29.4105191 13.6697674 29.9877049 13.6697674 30.5560109 14.1348837 31 14.7302326 31z" id="?" fill="#000" fill-rule="nonzero" opacity=".300000012"/><path d="M30 10H21.3333333C20.5969537 10 20 9.40304633 20 8.66666667V0 0L30 10z" id="Rectangle" fill="#000" opacity=".100000001"/></g></g></svg>