<svg width="40" height="40" viewBox="0 0 40 40" xmlns="http://www.w3.org/2000/svg" xmlns:xlink="http://www.w3.org/1999/xlink"><title>常规/fileicon_rideo_icon_light@1x</title><g id="常规/fileicon_rideo_icon_light" stroke="none" stroke-width="1" fill="none" fill-rule="evenodd"><g id="Group" transform="translate(5.000000, 0.000000)"><path d="M2 0H28C29.1045695-216501571e-23 30 .8954305 30 2V38C30 39.1045695 29.1045695 40 28 40H2C.8954305 40 13527075e-23 39.1045695.0 38V2C-13527075e-23.8954305.8954305 202906125e-24 2 0zM28 0C29.1045695-202906125e-24 30 .8954305 30 2v9C29.9988493 10.4851446 29.8035889 9.97516175 29.4142136 9.58578644l-9-9.000000002C20.0242031.195775994 19.5131914.000514185843 19.0020204 101420586e-14L19 0h9z" id="形状结合备份-7" fill="#f2f2f2"/><path d="M30 11.2546019C30 10.8416514 29.9535872 10.6745401 29.8664336 10.5115771 29.7792801 10.3486142 29.6513858 10.2207199 29.4884229 10.1335664 29.3458303 10.057307 29.2000616 10.0122398 28.8892029 10.0021645L28.7453981 10H21C20.4477153 10 20 9.55228475 20 9V1.25460192C20 .841651367 19.9535872.674540111 19.8664336.511577148 19.7792801.348614185 19.6513858.220719898 19.4884229.133566352 19.3458303.0573069989 19.2000616.0122397755 18.8892029.00216452201L18.7453981 467696131e-25 19.0020204 101420586e-14C19.5131914.000514185843 20.0242031.195775994 20.4142136.585786438v0l9 9.000000002C29.8035889 9.97516175 29.9988493 10.4851446 30 11v0V11.2546019z" id="形状结合" fill="#000" opacity=".1"/><path d="M15 16.8C19.5287349 16.8 23.2 20.4712651 23.2 25 23.2 29.5287349 19.5287349 33.2 15 33.2 10.4712651 33.2 6.8 29.5287349 6.8 25 6.8 20.4712651 10.4712651 16.8 15 16.8zM15 18C11.1340068 18 8 21.1340068 8 25 8 28.8659932 11.1340068 32 15 32 18.8659932 32 22 28.8659932 22 25 22 21.1340068 18.8659932 18 15 18zM13.4760356 21.5150158 13.5572479 21.5543487 18.5854226 24.5712535C18.6557974 24.6134784 18.7146963 24.6723773 18.7569211 24.7427521 18.8832092 24.9532322 18.8365735 25.2192896 18.6583457 25.3755982L18.5854226 25.4287465 13.5572479 28.4456513C13.4795402 28.4922759 13.390622 28.5169048 13.3 28.5169048 13.0545401 28.5169048 12.8503916 28.3400296 12.8080557 28.1067804L12.8 28.0169048V21.9830952C12.8 21.8924732 12.8246289 21.803555 12.8712535 21.7258473 12.9975416 21.5153672 13.2542443 21.4313128 13.4760356 21.5150158zM14 23.22V26.779L16.967 25 14 23.22z" id="形状结合备份" fill-opacity=".3" fill="#000" fill-rule="nonzero"/></g></g></svg>