<svg width="24" height="24" viewBox="0 0 24 24" xmlns="http://www.w3.org/2000/svg" xmlns:xlink="http://www.w3.org/1999/xlink"><title>icons_outlined_item</title><g id="icons_outlined_item" stroke="none" stroke-width="1" fill="none" fill-rule="evenodd" fill-opacity=".9"><path d="M7.4 5.2H20.4V6.4H7.4V5.2zM7.8 18.8h13V20H7.8V18.8zM7.8 12h13V13.2H7.8V12zM3.4 11.6H3.5C4.05228475 11.6 4.5 12.0477153 4.5 12.6V12.7C4.5 13.2522847 4.05228475 13.7 3.5 13.7H3.4C2.84771525 13.7 2.4 13.2522847 2.4 12.7V12.6C2.4 12.0477153 2.84771525 11.6 3.4 11.6zM3.4 18.3H3.5C4.05228475 18.3 4.5 18.7477153 4.5 19.3V19.4C4.5 19.9522847 4.05228475 20.4 3.5 20.4H3.4C2.84771525 20.4 2.4 19.9522847 2.4 19.4V19.3C2.4 18.7477153 2.84771525 18.3 3.4 18.3zm0-13.5H3.5C4.05228475 4.8 4.5 5.24771525 4.5 5.8V5.9C4.5 6.45228475 4.05228475 6.9 3.5 6.9H3.4C2.84771525 6.9 2.4 6.45228475 2.4 5.9V5.8C2.4 5.24771525 2.84771525 4.8 3.4 4.8z" id="形状结合" fill="#000"/></g></svg>