<svg width="24" height="24" viewBox="0 0 24 24" xmlns="http://www.w3.org/2000/svg" xmlns:xlink="http://www.w3.org/1999/xlink"><title>icons_outlined_addoutline</title><desc>Created with Sketch.</desc><defs/><g id="icons_outlined_addoutline" stroke="none" stroke-width="1" fill="none" fill-rule="evenodd"><g id="icon21" fill="#000"><g id="Group-19" transform="translate(2.000000, 2.000000)"><path d="M10 18.8C14.8601058 18.8 18.8 14.8601058 18.8 10 18.8 5.1398942 14.8601058 1.2 10 1.2 5.1398942 1.2 1.2 5.1398942 1.2 10 1.2 14.8601058 5.1398942 18.8 10 18.8zM10 20C4.4771525 20 0 15.5228475.0 10 0 4.4771525 4.4771525.0 10 0 15.5228475.0 20 4.4771525 20 10 20 15.5228475 15.5228475 20 10 20z" id="Oval-78" fill-rule="nonzero"/><path d="M9.3999939 9.3999939V5H10.5999939V9.3999939H15V10.5999939H10.5999939V15H9.3999939V10.5999939H5V9.3999939H9.3999939z" id="Combined-Shape"/></g></g></g></svg>