<svg width="24" height="24" viewBox="0 0 24 24" xmlns="http://www.w3.org/2000/svg" xmlns:xlink="http://www.w3.org/1999/xlink"><title>icons_outlined_todo</title><g id="icons_outlined_todo" stroke="none" stroke-width="1" fill="none" fill-rule="evenodd" fill-opacity=".9"><path d="M17.4703913 4 16.5564769 5.13333333H5.14430169V18.8666667L18.903 18.9051495V11.2989655L20.0473016 9.89086381V19.0940384C20.0473016 19.6156407 19.6203672 20.0384828 19.0937169 20.0384828L4.95358474 20C4.42693443 20 4 19.5771578 4 19.0555556V4.94444444C4 4.42284218 4.42693443 4 4.95358474 4H17.4703913zM19.6776695 4 20.7383297 5.06066017 12.0642137 15.5853788C12.0438378 15.610102 12.0222855 15.6338316 11.9996314 15.6564857 11.6091071 16.04701 10.9759421 16.04701 10.5854179 15.6564857v0L7 12.0710678 8.06066017 11.0104076 11.363961 14.3137085 19.6776695 4z" id="形状结合" fill="#000"/></g></svg>