<svg width="36" height="36" viewBox="0 0 36 36" xmlns="http://www.w3.org/2000/svg" xmlns:xlink="http://www.w3.org/1999/xlink"><title>Artboard Copy</title><desc>Created with Sketch.</desc><g id="Artboard-Copy" stroke="none" stroke-width="1" fill="none" fill-rule="evenodd"><g id="Fav-Copy" transform="translate(2.000000, 0.000000)" fill="#fff"><g id="Group-24" transform="translate(15.921825, 17.904627) rotate(30.000000) translate(-15.921825, -17.904627) translate(6.168755, 2.983574)"><path d="M9.89101437.137359971C12.8297573.137359971 15.2120792 2.51968183 15.2120792 5.45842478V14.3414062C15.2120792 17.2801492 12.8297573 19.662471 9.89101437 19.662471 6.95227142 19.662471 4.56994956 17.2801492 4.56994956 14.3414062V5.45842478C4.56994956 2.51968183 6.95227142.137359971 9.89101437.137359971zM10.9552273 23.9429287V26.1708414H8.82680141V23.9429287C4.0378958 23.413542.313097713 19.3534916.313097713 14.4234679V10.9846439H2.44152364V14.3824371C2.44152364 18.4966772 5.77677424 21.8319278 9.89101437 21.8319278 14.0052545 21.8319278 17.3405051 18.4966772 17.3405051 14.3824371V10.9846439H19.468931V14.4234679C19.468931 19.3534916 15.7441329 23.413542 10.9552273 23.9429287zM8.82680141 27.2555698H10.9552273L10.1928271 29.0597937C10.1223913 29.2264802 9.93016571 29.3045069 9.76347915 29.2340711 9.68491888 29.2008744 9.62239842 29.1383539 9.58920167 29.0597937L8.82680141 27.2555698z" id="Combined-Shape"/></g></g></g></svg>