<svg width="24" height="24" viewBox="0 0 24 24" xmlns="http://www.w3.org/2000/svg" xmlns:xlink="http://www.w3.org/1999/xlink"><title>new/icons_outlined_note_B</title><g id="new/icons_outlined_note_B" stroke="none" stroke-width="1" fill="none" fill-rule="evenodd" fill-opacity=".9"><path d="M13.7446809 20C15.2978723 20 16.5319149 19.6638655 17.4255319 19.0364146 18.4680851 18.2745098 19 17.1092437 19 15.5406162 19 14.464986 18.7021277 13.6134454 18.1489362 12.9411765 17.5957447 12.2689076 16.8297872 11.8207283 15.8297872 11.6414566 16.5957447 11.372549 17.212766 10.9467787 17.6808511 10.3641457 18.1276596 9.71428571 18.3617021 8.92997199 18.3617021 8.03361345 18.3617021 6.77871148 17.9574468 5.79271709 17.1489362 5.07563025 16.3191489 4.35854342 15.1914894 4 13.787234 4H7V20H13.7446809zM13.3617021 10.725H8.74468085V5.45454545H13.3829787C14.4468085 5.45454545 15.2553191 5.65090909 15.8085106 6.08727273 16.3617021 6.52363636 16.6382979 7.17818182 16.6382979 8.05090909 16.6382979 8.94545455 16.3404255 9.62181818 15.787234 10.08 15.2340426 10.5163636 14.4255319 10.725 13.3617021 10.725zM13.5957447 18.4945455H8.74468085V12.725H13.5957447C14.7659574 12.725 15.6595745 12.9309091 16.2765957 13.4109091 16.9148936 13.8909091 17.2553191 14.6327273 17.2553191 15.6363636 17.2553191 16.64 16.8723404 17.4036364 16.1276596 17.8836364 15.4893617 18.2763636 14.6595745 18.4945455 13.5957447 18.4945455z" id="B" fill="#000"/></g></svg>