<svg width="24" height="24" viewBox="0 0 24 24" xmlns="http://www.w3.org/2000/svg" xmlns:xlink="http://www.w3.org/1999/xlink"><title>icons_outlined_order</title><g id="icons_outlined_order" stroke="none" stroke-width="1" fill="none" fill-rule="evenodd" fill-opacity=".9"><path d="M2.40136719 11.5087891V11.5205078H3.11035156V11.5087891C3.11035156 11.078125 3.40917969 10.7880859 3.8515625 10.7880859 4.26757812 10.7880859 4.57226562 11.0576172 4.57226562 11.4296875 4.57226562 11.7285156 4.42871094 11.9482422 3.8515625 12.5341797L2.44238281 13.9755859V14.5H5.37792969V13.8583984H3.47949219V13.8085938L4.36425781 12.9208984C5.08203125 12.2119141 5.31347656 11.8369141 5.31347656 11.3828125 5.31347656 10.6767578 4.70996094 10.1669922 3.875 10.1669922 3.0078125 10.1669922 2.40136719 10.7177734 2.40136719 11.5087891zM3.41210938 19.125H3.94238281C4.46386719 19.125 4.78320312 19.3798828 4.78320312 19.7929688 4.78320312 20.1914062 4.44335938 20.4697266 3.95996094 20.4697266 3.47363281 20.4697266 3.13964844 20.2207031 3.10742188 19.828125H2.38378906C2.421875 20.6015625 3.04296875 21.1054688 3.95410156 21.1054688 4.87402344 21.1054688 5.55371094 20.5664062 5.55371094 19.8398438 5.55371094 19.2773438 5.19628906 18.8847656 4.61914062 18.8173828V18.7675781C5.08789062 18.6679688 5.38378906 18.2900391 5.38378906 17.7949219 5.38378906 17.1474609 4.77148438 16.6669922 3.95117188 16.6669922 3.07226562 16.6669922 2.50390625 17.1503906 2.46582031 17.9267578H3.171875C3.20117188 17.5283203 3.49121094 17.2822266 3.92773438 17.2822266 4.37011719 17.2822266 4.65429688 17.5253906 4.65429688 17.9003906 4.65429688 18.2783203 4.35839844 18.5390625 3.92773438 18.5390625h-.515625V19.125zM3.5939268 8H4.34978617V3.77246094H3.59685648L2.4923643 4.54589844v.7265625L3.54412211 4.53417969H3.5939268V8zM7.8 5.2h13V6.4H7.8V5.2zM7.8 18.8h13V20H7.8V18.8zM7.8 12h13V13.2H7.8V12z" id="形状结合" fill="#000"/></g></svg>