<svg width="24" height="24" viewBox="0 0 24 24" xmlns="http://www.w3.org/2000/svg" xmlns:xlink="http://www.w3.org/1999/xlink"><title>画板</title><g id="画板" stroke="none" stroke-width="1" fill="none" fill-rule="evenodd"><g id="icon22" fill="#fff"><path d="M12 2C16.418278 2 20 5.581722 20 10 20 16.018278 12.7382812 22.1344765 12.7382812 22.1344765 12.3335649 22.5060199 11.6694602 22.502035 11.2617188 22.1344765 11.2617188 22.1344765 4 16.018278 4 10c0-4.418278 3.581722-8 8-8zm0 4.5C10.0670034 6.5 8.5 8.06700338 8.5 10 8.5 11.9329966 10.0670034 13.5 12 13.5 13.9329966 13.5 15.5 11.9329966 15.5 10 15.5 8.06700338 13.9329966 6.5 12 6.5z" id="图标颜色"/></g></g></svg>