<?xml version="1.0" encoding="UTF-8"?>
<svg width="120px" height="120px" viewBox="0 0 120 120" version="1.1" xmlns="http://www.w3.org/2000/svg" xmlns:xlink="http://www.w3.org/1999/xlink">
    <!-- Generator: Sketch 63.1 (92452) - https://sketch.com -->
    <title>playBTN</title>
    <desc>Created with Sketch.</desc>
    <g id="控件" stroke="none" stroke-width="1" fill="none" fill-rule="evenodd">
        <g id="playBTN">
            <circle id="椭圆形" fill-opacity="0.15" fill="#000000" cx="60" cy="60" r="60"></circle>
            <path d="M60,0 C93.137085,0 120,26.862915 120,60 C120,93.137085 93.137085,120 60,120 C26.862915,120 0,93.137085 0,60 C0,26.862915 26.862915,0 60,0 Z M60,3.6 C28.8511401,3.6 3.6,28.8511401 3.6,60 C3.6,91.1488599 28.8511401,116.4 60,116.4 C91.1488599,116.4 116.4,91.1488599 116.4,60 C116.4,28.8511401 91.1488599,3.6 60,3.6 Z M48,38.169539 C48.5220808,38.169539 49.0351237,38.305785 49.4884168,38.5648096 L82.4417235,57.3952706 C83.8802758,58.2173005 84.380066,60.0498645 83.5580361,61.4884168 C83.2922682,61.9535106 82.9068173,62.3389615 82.4417235,62.6047294 L49.4884168,81.4351904 C48.0498645,82.2572203 46.2173005,81.7574301 45.3952706,80.3188778 C45.136246,79.8655847 45,79.3525418 45,78.830461 L45,41.169539 C45,39.5126848 46.3431458,38.169539 48,38.169539 Z" id="形状" fill="#FFFFFF" fill-rule="nonzero"></path>
        </g>
    </g>
</svg>