<svg width="24" height="24" viewBox="0 0 24 24" xmlns="http://www.w3.org/2000/svg" xmlns:xlink="http://www.w3.org/1999/xlink"><title>icons_filled_voice</title><desc>Created with Sketch.</desc><g id="icons_filled_voice" stroke="none" stroke-width="1" fill="none" fill-rule="evenodd"><g id="icon24" fill="#000"><path d="M12 22C6.4771525 22 2 17.5228475 2 12 2 6.4771525 6.4771525 2 12 2 17.5228475 2 22 6.4771525 22 12 22 17.5228475 17.5228475 22 12 22zM12.3083261 16.8083261 13.1568542 17.6568542C14.6045695 16.209139 15.5 14.209139 15.5 12 15.5 9.790861 14.6045695 7.790861 13.1568542 6.34314575L12.3083261 7.19167389C13.5761218 8.45946962 14.3 10.1709098 14.3 12 14.3 13.8290902 13.5761218 15.5405304 12.3083261 16.8083261zM10.3284271 14.8284271 11.1769553 15.6769553C12.1179702 14.7359403 12.7 13.4359403 12.7 12 12.7 10.5640597 12.1179702 9.26405965 11.1769553 8.32304474L10.3284271 9.17157288C11.0745099 9.91765564 11.5 10.9236273 11.5 12 11.5 13.0763727 11.0745099 14.0823444 10.3284271 14.8284271zM9.19705627 13.6970563C9.63137085 13.2627417 9.9 12.6627417 9.9 12 9.9 11.3372583 9.63137085 10.7372583 9.19705627 10.3029437L7.5 12 9.19705627 13.6970563z" id="Combined-Shape"/></g></g></svg>