<svg width="24" height="24" viewBox="0 0 24 24" fill="none" xmlns="http://www.w3.org/2000/svg">
<path fill-rule="evenodd" clip-rule="evenodd" d="M5.59993 4.2H13.9999C14.3313 4.2 14.5999 4.46863 14.5999 4.8V19.2C14.5999 19.5314 14.3313 19.8 13.9999 19.8H5.59993C5.26856 19.8 4.99993 19.5314 4.99993 19.2V4.8C4.99993 4.46863 5.26856 4.2 5.59993 4.2ZM3.79993 4.8C3.79993 3.80589 4.60581 3 5.59993 3H13.9999C14.994 3 15.7999 3.80589 15.7999 4.8V19.2C15.7999 20.1941 14.994 21 13.9999 21H5.59993C4.60581 21 3.79993 20.1941 3.79993 19.2V4.8ZM18.5 19H17.5V17.8H18.5C18.8314 17.8 19.1 17.5314 19.1 17.2V6.8C19.1 6.46863 18.8314 6.2 18.5 6.2H17.5V5H18.5C19.4942 5 20.3 5.80589 20.3 6.8V17.2C20.3 18.1941 19.4942 19 18.5 19Z" fill="black" style="fill:black;fill-opacity:1;"/>
</svg>
