<svg width="50" height="50" viewBox="0 0 50 50" xmlns="http://www.w3.org/2000/svg" xmlns:xlink="http://www.w3.org/1999/xlink"><title>avatar_dotline_minus_bg备份</title><desc>Created with Sketch.</desc><g id="avatar_dotline_minus_bg备份" stroke="none" stroke-width="1" fill="none" fill-rule="evenodd"><path d="M14.2551675 49.0021383V50H8.90947969V49.0021383H14.2551675zm8.9094797.0V50H17.8189594V49.0021383h5.3456878zm17.8189594.0V50H35.6379187V49.0021383H40.9836066zm-8.909479699999999.0V50H26.7284391V49.0021383H32.0741269zM49.875332 44.5473984 49.8754203 44.5780301C49.8754203 47.512941 47.4962048 49.8921565 44.5612939 49.8921565v0H44.5473984V49.0053013C47.0008568 48.9912806 48.9844723 47.0009887 48.9844723 44.5473984v0h.8908597zm-48.984384031.0C.890947969 47.0009887 2.87456352 48.9912806 5.32561423 49.002094L5.32802185 49.0053013V49.8921565H5.31412642C2.37921544 49.8921565-44408921e-23 47.512941-133226763e-23 44.5780301L88283947e-12 44.5473984H.890947969zM.997861725 35.6379187V40.9836066H0V35.6379187H.997861725zM50 35.6379187V40.9836066H49.0021383V35.6379187H50zM.997861725 26.7284391V32.0741269H0V26.7284391H.997861725zM50 26.7284391V32.0741269H49.0021383V26.7284391H50zM34.9251604 24.2783321V25.6147541H14.9679259V24.2783321H34.9251604zM.997861725 17.8189594v5.3456878H0V17.8189594H.997861725zM50 17.8189594v5.3456878H49.0021383V17.8189594H50zM50 8.90947969V14.2551675H49.0021383V8.90947969H50zm-49.002138275.0V14.2551675H0V8.90947969H.997861725zM44.5612939-105968567e-19C47.4962048-105977449e-19 49.8754203 2.37921544 49.8754203 5.31412642L49.875332 5.34475804h-.8908597C48.9844723 2.89116781 47.0008568.900875823 44.5498061.890062469L44.5473984.886855222V-105968567e-19H44.5612939zm-39.233272050000004.0V.886855222C2.87456352.900875823.890947969 2.89116781.890947969 5.34475804v0H88283947e-12L-133226763e-23 5.31412642C-44408921e-23 2.37921544 2.37921544-105986331e-19 5.31412642-105968567e-19v0H5.32802185zM14.2551675.0V.997861725H8.90947969V0H14.2551675zM32.0741269.0V.997861725H26.7284391V0H32.0741269zM40.9836066.0V.997861725H35.6379187V0H40.9836066zM23.1646472.0V.997861725H17.8189594V0h5.3456878z" id="形状结合" fill="#b2b2b2"/></g></svg>
