<?xml version="1.0" encoding="UTF-8" ?>
<svg width="72" height="72" viewBox="0 0 72 72" xmlns="http://www.w3.org/2000/svg" xmlns:xlink="http://www.w3.org/1999/xlink"><title>icons_filled_delete</title><desc>Created with Sketch.</desc><g id="icons_filled_delete" stroke="none" stroke-width="1" fill="none" fill-rule="evenodd"><g id="icon39" fill="#000"><g id="Group-3" transform="translate(9.000000, 6.000000)"><path d="M46.2352937 13.5000065 43.8322158 54.3523321C43.6456642 57.5237079 41.0194274 60 37.8425695 60H16.1574305C12.9805726 60 10.3543358 57.5237079 10.1677842 54.3523321L7.76470626 13.5000065H1.5V10.5C1.5 9.67157288 2.17157288 9 3 9H51C51.8284271 9 52.5 9.67157288 52.5 10.5V13.5000065H46.2352937zM21 1.50010232H33C33.8284271 1.50010232 34.5 2.17167519 34.5 3.00010232V6h-15V3.00010232C19.5 2.17167519 20.1715729 1.50010232 21 1.50010232zM18 20.999944l1.5 27.0000388H24L22.8000011 20.999944H18zm13.5.0L30 47.9999828h4.5L36 20.999944H31.5z" id="Combined-Shape"/></g></g></g></svg>