<svg width="24" height="24" viewBox="0 0 24 24" fill="none" xmlns="http://www.w3.org/2000/svg">
<path fill-rule="evenodd" clip-rule="evenodd" d="M14.3964 9.07678L12 4.05476L9.60358 9.07678L4.08684 9.80399L8.12254 13.635L7.10939 19.1064L12 16.4521L16.8906 19.1064L15.8774 13.635L19.9131 9.80399L14.3964 9.07678ZM8.39979 7.41989L2.81276 8.15636C1.72868 8.29926 1.2946 9.63524 2.08764 10.3881L6.17475 14.2678L5.14869 19.809C4.9496 20.8842 6.08605 21.7099 7.04708 21.1883L12 18.5001L16.9529 21.1883C17.9139 21.7099 19.0503 20.8842 18.8512 19.809L17.8252 14.2678L21.9123 10.3881C22.7053 9.63524 22.2713 8.29926 21.1872 8.15636L15.6002 7.41989L13.1732 2.33389C12.7023 1.34704 11.2976 1.34703 10.8267 2.33389L8.39979 7.41989Z" fill="black" fill-opacity="0.9" style="fill:black;fill-opacity:0.9;"/>
</svg>
